# xmcd
#
# Track frame offsets: 
#        150
#        15886
#        30763
#        44334
#
# Disc length: 755 seconds
#
# Revision: 1
# Processed by: cddbd v1.5.2PL0 Copyright (c) Steve Scherf et al.
# Submitted via: ExactAudioCopyFreeDBPlugin 1.0
#
DISCID=1a02f104
DTITLE=The Bird and the Bee / One Too Many Hearts
DYEAR=2008
DGENRE=Indie Pop
TTITLE0=Birthday
TTITLE1=Last Day of Our Love
TTITLE2=Come as You Were
TTITLE3=Tonight You Belong to Me
EXTD=
EXTT0=
EXTT1=
EXTT2=
EXTT3=
PLAYORDER=
